<svg id="Layer_1" data-name="Layer 1" xmlns="http://www.w3.org/2000/svg" viewBox="0 0 1067 790.33"><defs><style>.cls-1{fill:#f7c05e;}.cls-2,.cls-3{fill:none;}.cls-3{stroke:#f7c05e;stroke-miterlimit:10;stroke-width:10px;}</style></defs><path class="cls-1" d="M732.88,754.73,676,213.11a22.29,22.29,0,0,0-22.16-20H546.9V170.39c0-76.08-61-139-137.08-139.39-76.34-.41-138.58,61.56-138.58,137.79v24.37H164.31a22.29,22.29,0,0,0-22.16,20L85.26,754.73a22.28,22.28,0,0,0,22.16,24.6H710.71a22.29,22.29,0,0,0,22.17-24.6Zm-417.28-586c0-54.29,46.71-97.91,102.12-92.91,48.25,4.35,84.82,45.57,84.82,94v23.29H315.6ZM134,735l52-497.45h85.26v48.63c0,12.06,9.37,22.35,21.41,22.76a22.23,22.23,0,0,0,23-22.28V237.52H502.54v48.64c0,12,9.37,22.35,21.41,22.75a22.23,22.23,0,0,0,22.95-22.27V237.52h86.48l52,497.45Z" transform="translate(334 11)"/><circle class="cls-1" cx="627" cy="416" r="23"/><circle class="cls-1" cx="860" cy="416" r="23"/><path class="cls-2" d="M-334,0c0-6.08,89.45-11,200-11" transform="translate(334 11)"/><path class="cls-3" d="M268.6,567.81a199.87,199.87,0,0,1,282.8,4.38" transform="translate(334 11)"/></svg>