<?xml version="1.0" encoding="utf-8"?>
<!-- Generator: Adobe Illustrator 24.1.0, SVG Export Plug-In . SVG Version: 6.00 Build 0)  -->
<svg version="1.1" id="Layer_1" xmlns="http://www.w3.org/2000/svg" xmlns:xlink="http://www.w3.org/1999/xlink" x="0px" y="0px"
	 viewBox="0 0 24 24" style="enable-background:new 0 0 24 24;" xml:space="preserve">
<style type="text/css">
	.st0{fill:#FFFFFF;}
</style>
<path class="st0" d="M12,3c2.1,0,4,1.7,4,3.7c0,2.1-1.7,4.9-4,8.6c-2.3-3.6-4-6.5-4-8.6C8,4.7,9.9,3,12,3z M12,1C8.9,1,6,3.6,6,6.7
	c0,3.1,2.6,6.9,6,12.3c3.4-5.4,6-9.1,6-12.3C18,3.6,15.1,1,12,1z M12,9c-1.1,0-2-0.9-2-2s0.9-2,2-2s2,0.9,2,2S13.1,9,12,9z M20,15
	h-3.1c-0.4,0.6-0.8,1.3-1.2,2h3.1l0.5,1H15l-0.3,0.5L14.4,19h0.6l0.9,2H8.3l0.9-2h0.5l-0.3-0.5L9,18H7l-1-1h2.4
	c-0.4-0.7-0.8-1.4-1.2-2H4l-4,8h24L20,15z M7.2,21h-4L5,17.5L6.5,19h1.5L7.2,21z M16,19h3.8l1,2h-3.9L16,19z"/>
</svg>
